<mxfile host="app.diagrams.net" modified="2024-03-07T16:34:43.136Z" agent="Mozilla/5.0 (Windows NT 10.0; Win64; x64) AppleWebKit/537.36 (KHTML, like Gecko) Chrome/122.0.0.0 Safari/537.36 Edg/122.0.0.0" etag="HO0vk9583lV5AcbI_Vhh" version="24.0.2" type="github">
  <diagram name="Page-1" id="c4acf3e9-155e-7222-9cf6-157b1a14988f">
    <mxGraphModel dx="639" dy="682" grid="1" gridSize="10" guides="1" tooltips="1" connect="1" arrows="1" fold="1" page="1" pageScale="1" pageWidth="850" pageHeight="1100" background="none" math="0" shadow="0">
      <root>
        <mxCell id="0" />
        <mxCell id="1" parent="0" />
        <mxCell id="bh5P_e73tJN-8WDk8U7W-3" value="Admin" style="shape=umlActor;verticalLabelPosition=bottom;verticalAlign=top;html=1;outlineConnect=0;" vertex="1" parent="1">
          <mxGeometry x="30" y="660" width="30" height="60" as="geometry" />
        </mxCell>
        <mxCell id="bh5P_e73tJN-8WDk8U7W-6" value="Admin" style="shape=umlActor;verticalLabelPosition=bottom;verticalAlign=top;html=1;outlineConnect=0;" vertex="1" parent="1">
          <mxGeometry x="40" y="280" width="30" height="60" as="geometry" />
        </mxCell>
        <mxCell id="bh5P_e73tJN-8WDk8U7W-38" style="rounded=0;orthogonalLoop=1;jettySize=auto;html=1;" edge="1" parent="1" source="bh5P_e73tJN-8WDk8U7W-12">
          <mxGeometry relative="1" as="geometry">
            <mxPoint x="240" y="480" as="targetPoint" />
          </mxGeometry>
        </mxCell>
        <mxCell id="bh5P_e73tJN-8WDk8U7W-12" value="Quản lý mặt hàng" style="ellipse;whiteSpace=wrap;html=1;" vertex="1" parent="1">
          <mxGeometry x="170" y="270" width="120" height="70" as="geometry" />
        </mxCell>
        <mxCell id="bh5P_e73tJN-8WDk8U7W-22" style="rounded=0;orthogonalLoop=1;jettySize=auto;html=1;entryX=0.02;entryY=0.621;entryDx=0;entryDy=0;entryPerimeter=0;exitX=1;exitY=0.5;exitDx=0;exitDy=0;" edge="1" parent="1" source="bh5P_e73tJN-8WDk8U7W-12" target="bh5P_e73tJN-8WDk8U7W-13">
          <mxGeometry relative="1" as="geometry" />
        </mxCell>
        <mxCell id="bh5P_e73tJN-8WDk8U7W-23" style="rounded=0;orthogonalLoop=1;jettySize=auto;html=1;exitX=1;exitY=0.5;exitDx=0;exitDy=0;" edge="1" parent="1" source="bh5P_e73tJN-8WDk8U7W-12" target="bh5P_e73tJN-8WDk8U7W-14">
          <mxGeometry relative="1" as="geometry" />
        </mxCell>
        <mxCell id="bh5P_e73tJN-8WDk8U7W-24" style="rounded=0;orthogonalLoop=1;jettySize=auto;html=1;entryX=0;entryY=0.5;entryDx=0;entryDy=0;exitX=1;exitY=0.5;exitDx=0;exitDy=0;" edge="1" parent="1" source="bh5P_e73tJN-8WDk8U7W-12" target="bh5P_e73tJN-8WDk8U7W-15">
          <mxGeometry relative="1" as="geometry">
            <mxPoint x="320" y="320" as="sourcePoint" />
          </mxGeometry>
        </mxCell>
        <mxCell id="bh5P_e73tJN-8WDk8U7W-25" style="rounded=0;orthogonalLoop=1;jettySize=auto;html=1;exitX=1;exitY=0.5;exitDx=0;exitDy=0;" edge="1" parent="1" source="bh5P_e73tJN-8WDk8U7W-12" target="bh5P_e73tJN-8WDk8U7W-16">
          <mxGeometry relative="1" as="geometry">
            <mxPoint x="320" y="310" as="sourcePoint" />
          </mxGeometry>
        </mxCell>
        <mxCell id="bh5P_e73tJN-8WDk8U7W-13" value="Thêm mặt hàng / số lượng hàng vào hệ thống" style="ellipse;whiteSpace=wrap;html=1;" vertex="1" parent="1">
          <mxGeometry x="380" y="130" width="140" height="70" as="geometry" />
        </mxCell>
        <mxCell id="bh5P_e73tJN-8WDk8U7W-14" value="Chỉnh sửa thông tin mặt hàng" style="ellipse;whiteSpace=wrap;html=1;" vertex="1" parent="1">
          <mxGeometry x="380" y="210" width="140" height="70" as="geometry" />
        </mxCell>
        <mxCell id="bh5P_e73tJN-8WDk8U7W-15" value="Xóa mặt hàng ra khỏi hệ thống" style="ellipse;whiteSpace=wrap;html=1;" vertex="1" parent="1">
          <mxGeometry x="390" y="300" width="140" height="70" as="geometry" />
        </mxCell>
        <mxCell id="bh5P_e73tJN-8WDk8U7W-16" value="Tìm kiếm các mặt hàng" style="ellipse;whiteSpace=wrap;html=1;" vertex="1" parent="1">
          <mxGeometry x="380" y="390" width="140" height="70" as="geometry" />
        </mxCell>
      </root>
    </mxGraphModel>
  </diagram>
</mxfile>
